<?xml version="1.0" encoding="UTF-8"?>
<svg id="Layer_1" data-name="Layer 1" xmlns="http://www.w3.org/2000/svg" viewBox="0 0 211.33 177.96">
  <defs>
    <style>
      .cls-1 {
        fill: #50beaf;
      }
    </style>
  </defs>
  <g>
    <polygon class="cls-1" points="19.81 116.33 12 127.71 19.81 139.08 19.81 139.66 15.3 139.66 8.9 129.85 4 129.85 4 139.66 0 139.66 0 115.75 4 115.75 4 126.14 8.51 126.14 15.3 115.75 19.81 115.75 19.81 116.33"/>
    <path class="cls-1" d="M36.37,123.61l-7.14,17.45c-.46,1.14-.86,2.07-1.21,2.78-.35.72-.81,1.45-1.37,2.2-.56.75-1.15,1.28-1.78,1.59-.63.31-1.39.46-2.29.44-.9-.01-1.91-.26-3.02-.73l.44-2.7c.93.48,1.75.63,2.46.44.71-.18,1.28-.54,1.73-1.06.44-.52.84-1.28,1.18-2.25l.79-2.02-7.41-16.16v-.41h4l2.43,5.74,2.7,7.24h.1l2.49-7.21,2.19-5.77h3.72v.41Z"/>
    <path class="cls-1" d="M43.69,125.59c.32-.91.94-1.63,1.86-2.15.92-.52,1.92-.79,2.99-.79,1.43-.05,2.7.34,3.79,1.16l-.92,3.21c-1-.66-2.1-.99-3.28-.99s-2.18.36-2.99,1.09c-.81.73-1.21,1.73-1.21,3.01v9.53h-3.69v-11.96c0-.46-.01-.79-.03-.99-.02-.2-.09-.42-.19-.63-.1-.22-.28-.36-.53-.43-.25-.07-.59-.09-1.02-.07l-.03-2.53c1.37-.32,2.57-.28,3.6.1,1.04.39,1.59,1.2,1.66,2.42Z"/>
    <path class="cls-1" d="M65.9,140.62v-1.74c-1.62.91-3.28,1.37-4.99,1.37-2.16-.02-3.95-.81-5.35-2.37-1.4-1.56-2.1-3.66-2.1-6.3,0-2.85.87-5,2.6-6.46,1.73-1.46,3.94-2.16,6.63-2.12,2.21.02,4.47.54,6.8,1.54v16.16c0,2.71-.75,4.75-2.24,6.13-1.49,1.38-3.39,2.08-5.69,2.1-2.35.05-4.66-.57-6.93-1.84l.55-3.01c2.41,1.16,4.51,1.73,6.29,1.71,2.96-.05,4.44-1.76,4.44-5.16ZM65.84,135.73v-9.02c-1.16-.41-2.32-.61-3.48-.61-1.62,0-2.88.46-3.77,1.38-.9.92-1.36,2.28-1.38,4.08,0,1.73.43,3.07,1.28,4.01.85.95,1.95,1.43,3.3,1.45,1.32.05,2.68-.39,4.06-1.3Z"/>
    <path class="cls-1" d="M89.48,123.61l-7.14,17.45c-.46,1.14-.86,2.07-1.21,2.78-.35.72-.81,1.45-1.37,2.2-.56.75-1.15,1.28-1.78,1.59-.63.31-1.39.46-2.29.44-.9-.01-1.91-.26-3.02-.73l.44-2.7c.93.48,1.75.63,2.46.44.71-.18,1.28-.54,1.73-1.06.44-.52.84-1.28,1.18-2.25l.79-2.02-7.41-16.16v-.41h4l2.43,5.74,2.7,7.24h.1l2.49-7.21,2.19-5.77h3.72v.41Z"/>
    <path class="cls-1" d="M91.19,139.66v-.75l4.78-7.48,3.59-5.19h-7.86v-3.04h13.22v.48l-5.09,7.89-3.35,4.88h8.4v3.21h-13.7Z"/>
    <path class="cls-1" d="M116.3,132.86h3.89c.05.84.37,1.55.97,2.14.6.58,1.31.99,2.12,1.21.81.23,1.68.34,2.61.34,1.52,0,2.83-.28,3.91-.85,1.08-.57,1.62-1.52,1.62-2.87,0-.59-.13-1.11-.39-1.55-.26-.44-.56-.79-.89-1.02-.33-.24-.81-.44-1.45-.61-.64-.17-1.16-.28-1.55-.34-.4-.06-.97-.12-1.72-.19-5.81-.5-8.71-2.69-8.71-6.56,0-2.32.87-4.11,2.61-5.36,1.74-1.25,3.87-1.88,6.37-1.88s4.58.58,6.3,1.74c1.72,1.16,2.6,2.89,2.65,5.19h-3.76c-.05-.8-.35-1.46-.92-2-.57-.53-1.21-.9-1.93-1.09-.72-.19-1.51-.29-2.37-.29-1.3,0-2.46.29-3.48.87-1.02.58-1.54,1.49-1.54,2.72,0,.52.11.98.34,1.37.23.39.48.68.75.89.27.2.7.39,1.28.56.58.17,1.05.29,1.42.36s.92.15,1.67.24c1.14.14,2.1.27,2.87.41.77.14,1.6.37,2.48.7.88.33,1.58.73,2.1,1.21.52.48.96,1.11,1.32,1.9s.53,1.71.53,2.78c0,1.25-.28,2.36-.84,3.33-.56.97-1.3,1.73-2.22,2.27-.92.55-1.92.96-2.99,1.23s-2.2.41-3.38.41c-1.62.05-3.14-.18-4.56-.68-1.42-.5-2.63-1.32-3.6-2.46-.98-1.14-1.48-2.51-1.5-4.1Z"/>
    <path class="cls-1" d="M138.67,118.11c0-.68.22-1.22.67-1.61.44-.39.97-.58,1.59-.58s1.14.19,1.57.58c.43.39.65.92.65,1.61s-.22,1.22-.65,1.61c-.43.39-.95.59-1.54.61-.62.02-1.15-.16-1.61-.56-.46-.4-.68-.95-.68-1.66ZM142.77,123.37v16.29h-3.72v-16.29h3.72Z"/>
    <path class="cls-1" d="M163.2,139.66h-3.76v-9.67c.02-1.25-.33-2.25-1.06-3.01s-1.66-1.14-2.8-1.16c-1.18,0-2.18.42-2.97,1.25-.8.83-1.2,1.91-1.2,3.23v9.36h-3.76v-11.68c0-1.05-.09-1.72-.27-2.01-.18-.3-.67-.42-1.47-.38v-2.42c.84-.11,1.65-.19,2.41-.24.76-.05,1.41.17,1.95.63.54.47.8,1.19.8,2.17.43-.98,1.17-1.7,2.22-2.17,1.05-.47,2.17-.7,3.38-.7,2.14,0,3.76.65,4.87,1.96,1.1,1.31,1.66,3.04,1.66,5.18v9.67Z"/>
    <path class="cls-1" d="M178.92,140.62v-1.74c-1.62.91-3.28,1.37-4.99,1.37-2.16-.02-3.95-.81-5.35-2.37-1.4-1.56-2.1-3.66-2.1-6.3,0-2.85.87-5,2.6-6.46,1.73-1.46,3.94-2.16,6.63-2.12,2.21.02,4.47.54,6.8,1.54v16.16c0,2.71-.75,4.75-2.24,6.13-1.49,1.38-3.39,2.08-5.69,2.1-2.35.05-4.66-.57-6.93-1.84l.55-3.01c2.41,1.16,4.51,1.73,6.29,1.71,2.96-.05,4.44-1.76,4.44-5.16ZM178.86,135.73v-9.02c-1.16-.41-2.32-.61-3.48-.61-1.62,0-2.87.46-3.77,1.38-.9.92-1.36,2.28-1.38,4.08,0,1.73.43,3.07,1.28,4.01.85.95,1.95,1.43,3.3,1.45,1.32.05,2.68-.39,4.06-1.3Z"/>
    <path class="cls-1" d="M186.74,114.66h3.69v19.09c0,1.39.24,2.32.73,2.78.49.47,1.43.59,2.82.36l.14,2.87c-2.62.43-4.5.21-5.65-.67-1.15-.88-1.73-2.65-1.73-5.31v-19.13Z"/>
    <path class="cls-1" d="M203.81,122.82c2.85,0,4.91.85,6.18,2.56,1.28,1.71,1.64,3.95,1.09,6.73h-12.16c0,1.46.51,2.62,1.52,3.48,1.01.87,2.29,1.3,3.84,1.3,2.19.11,4.18-.23,5.98-1.02l.48,2.77c-2.1.93-4.17,1.4-6.22,1.4-2.76.05-5.01-.75-6.76-2.39-1.75-1.64-2.59-3.83-2.49-6.56.05-2.62.89-4.65,2.53-6.1,1.64-1.45,3.64-2.17,6.01-2.17ZM203.77,125.69c-2.69,0-4.28,1.26-4.78,3.79h9.09c.05-1.18-.35-2.11-1.18-2.78-.83-.67-1.87-1.01-3.13-1.01Z"/>
    <path class="cls-1" d="M57.3,154.12h1.78l5.74,16.23h.07l2.39-8.57,2.53-8.06h4.2v.58l-7.96,23.5h-2.05l-5.77-15.34h-.07l-5.77,15.34h-2.19l-7.92-23.5v-.58h4.13l2.6,8.06,2.49,8.61h.07l5.74-16.26Z"/>
    <path class="cls-1" d="M76.45,156.06c0-.68.22-1.22.67-1.61.44-.39.97-.58,1.59-.58s1.14.19,1.57.58c.43.39.65.92.65,1.61s-.22,1.22-.65,1.61c-.43.39-.95.59-1.54.61-.61.02-1.15-.16-1.61-.56-.46-.4-.68-.95-.68-1.66ZM80.55,161.32v16.29h-3.72v-16.29h3.72Z"/>
    <path class="cls-1" d="M100.98,177.62h-3.76v-9.67c.02-1.25-.33-2.25-1.06-3.01s-1.66-1.14-2.8-1.16c-1.18,0-2.17.42-2.97,1.25-.8.83-1.2,1.91-1.2,3.23v9.36h-3.76v-11.68c0-1.05-.09-1.72-.27-2.01-.18-.3-.67-.42-1.47-.38v-2.42c.84-.11,1.65-.19,2.41-.24.76-.05,1.41.17,1.95.63.53.47.8,1.19.8,2.17.43-.98,1.17-1.7,2.22-2.17,1.05-.47,2.17-.7,3.38-.7,2.14,0,3.76.65,4.87,1.96,1.1,1.31,1.66,3.04,1.66,5.18v9.67Z"/>
    <path class="cls-1" d="M117.3,175.09v-.48c-1,2.23-2.82,3.35-5.47,3.35-2.35.05-4.2-.77-5.55-2.44-1.36-1.67-2.03-3.73-2.03-6.17s.76-4.51,2.27-6.08c1.52-1.57,3.35-2.36,5.52-2.36,1.62,0,3.14.42,4.58,1.26v-9.56h3.72v19.88c0,1.16.06,1.84.17,2.05.2.36.72.55,1.54.55l.07,2.56c-3.21.55-4.82-.31-4.82-2.56ZM116.69,170.07v-4.61c-1.3-.91-2.65-1.34-4.06-1.3-1.34.02-2.46.49-3.35,1.4-.89.91-1.33,2.18-1.33,3.79,0,1.5.38,2.76,1.14,3.77.76,1.01,1.87,1.52,3.33,1.52,1.25,0,2.28-.44,3.08-1.33.8-.89,1.2-1.97,1.2-3.24Z"/>
    <path class="cls-1" d="M141.45,169.32c0,2.71-.87,4.82-2.6,6.34-1.73,1.51-3.77,2.27-6.11,2.27s-4.38-.76-6.1-2.27c-1.72-1.51-2.58-3.63-2.58-6.34s.84-4.78,2.53-6.27c1.68-1.49,3.69-2.26,6.01-2.31,1.53-.02,2.94.27,4.25.87,1.31.6,2.4,1.58,3.28,2.92.88,1.34,1.31,2.94,1.31,4.78ZM127.75,169.32c0,1.69.5,3,1.5,3.94,1,.95,2.19,1.41,3.55,1.38,1.34-.02,2.5-.5,3.47-1.43.97-.93,1.45-2.23,1.45-3.89s-.51-3-1.54-3.95c-1.02-.94-2.22-1.39-3.59-1.35-1.34.05-2.49.53-3.43,1.45-.95.92-1.42,2.2-1.42,3.84Z"/>
    <path class="cls-1" d="M150.64,177.79h-1.67l-6.49-16.22v-.41h4l2.08,5.67,1.54,4.51h.07l3.93-9.8h1.84l3.93,9.84h.1l1.57-4.54c.25-.73.62-1.76,1.11-3.09.49-1.33.8-2.19.94-2.58h4.03v.41l-6.52,16.22h-1.67l-4.41-9.94-4.37,9.94Z"/>
  </g>
  <g>
    <path class="cls-1" d="M118.5,80.34h-3.3l12.38,17.84c.11.15.28.25.47.25h7.34c.32,0,.48-.38.25-.61l-17.15-17.48Z"/>
    <path class="cls-1" d="M112.42,80.48c-.05-.09-.14-.14-.24-.14h-2.94c-.1,0-.16.1-.13.19l1.85,5.2h4.24l-2.78-5.25Z"/>
    <path class="cls-1" d="M117.01,89.14h-4.83l3.21,9c.07.17.23.28.41.28h5.76c.17,0,.28-.19.2-.34l-4.74-8.94Z"/>
    <path class="cls-1" d="M92.85,80.34l-17.15,17.48c-.22.23-.06.61.25.61h7.34c.19,0,.36-.09.47-.25l12.38-17.84h-3.3Z"/>
    <path class="cls-1" d="M89.57,98.08c-.09.15.03.34.21.34h5.76c.18,0,.34-.11.4-.28l3.35-9h-4.83l-4.88,8.94Z"/>
    <path class="cls-1" d="M102.35,80.34h-2.94c-.1,0-.19.05-.23.14l-2.86,5.25h4.24l1.93-5.2c.03-.09-.03-.19-.13-.19Z"/>
    <path class="cls-1" d="M104.77,80.34l-1.96,17.73c-.02.19.13.36.32.36h5.63c.19,0,.34-.17.32-.36l-1.81-17.73h-2.49Z"/>
    <path class="cls-1" d="M158.84,48.8l-7.06-7.06-4.55,4.55,2.67,2.67,1.88-1.88,1.71,1.71-4.69,4.69-2.71-2.71V14.67c0-.98-.79-1.78-1.78-1.78h-33.01l-2.85-2.85,4.69-4.69,1.71,1.71-1.88,1.88,2.67,2.67,4.55-4.55-7.06-7.06-7.37,7.37-7.37-7.37-7.06,7.06,4.55,4.55,2.67-2.67-1.88-1.88,1.71-1.71,4.69,4.69-2.85,2.85h-32.98c-.98,0-1.79.8-1.79,1.78v35.97l-2.97,2.97-4.69-4.69,1.71-1.71,1.88,1.88,2.67-2.67-4.55-4.55-7.06,7.06,7.37,7.37-7.37,7.37,7.06,7.06,4.55-4.55-2.67-2.67-1.88,1.88-1.71-1.71,4.69-4.69,2.97,2.97v10.01h0v5.8-.02s0,20.22,0,20.22c0,.43.5.65.83.4l22.77-17.89c.43-.35.69-.88.69-1.44v-9.05l9.75-10.16,9.77,9.77,2.67-2.67-4.91-4.91,7.1-7.1,7.64,7.64v16.48c0,.56.26,1.09.68,1.44l22.56,17.85c.43.35,1.07.04,1.07-.51l-.02-19.38v-16.84l2.71-2.71,4.69,4.69-1.71,1.71-1.88-1.88-2.67,2.67,4.55,4.55,7.06-7.06-7.37-7.37,7.37-7.37ZM105.78,12.71l.18.18h-.35l.18-.18ZM65.2,56.28l.29-.29v.59l-.29-.29ZM114.16,49.52l-9.77,9.77-4.92-4.92-9.7,10.1v-6.74l-.02-.02v-8.84s.02,0,.02-.03v-11.64c0-.43.35-.77.77-.77h30.49c.42,0,.77.35.77.77v11.64h0v8.31l-7.64-7.64ZM134.96,56.83l-3.03,3.03c-.13.12-.31.38-.31.99v8.79l-3.46-2.2v5.83l3.47,2.22v6.69s-5.25-4.06-5.25-4.06c-.21-.19-.33-.45-.33-.74v-43.42c0-.98-.8-1.78-1.78-1.78h-6.27.56s-5.79,0-5.79,0h-.56s-13.66,0-13.66,0h0s-5.79,0-5.79,0h0s-5.44,0-5.44,0c-.98,0-1.78.79-1.78,1.78v6.02h0v5.78h0v15.12h0v5.78h0v11.27c0,.29-.14.59-.39.77l-5.2,3.68.02-6.78,3.45-2.18v-5.82l-3.45,2.18v-3.07s0-6.43,0-6.43c-.09-.18-.21-.35-.35-.49l-3.03-3.03c-.43-.43-.43-1.11,0-1.53l3.07-3.08c.14-.12.24-.27.31-.44v-7.05s3.43,2.2,3.43,2.2v-5.94l-3.42-2.14v-5.06s0-6.18,0-6.18c0-.42.35-.77.78-.76h10.13l2.74,4.34h5.93l-2.8-4.34h3.63c.41,0,.82,0,1.21-.29l3.46-2.85c.21-.21.48-.31.76-.31s.56.1.78.31l3.42,2.65c.26.17.56.4.9.43l3.65.06-2.82,4.34h5.96l2.83-4.42,10.25.09c.42,0,.77.34.77.76v11.2l-3.43,2.17v5.93l3.44-2.09v7.09c.08.14.16.26.27.38l3.09,3.07c.42.43.42,1.12,0,1.53ZM141.85,61.1v15.36l-4.05-2.56v5.9l4.05,2.6v7.73l-5.62-4.65-.03-7.05.03-5.6v-7.14l-.03-3.03v-5.2s.03-3.12.03-3.12v-7.41s0-6.84,0-6.84v-5.76s0-.03,0-.03v-5.25s.02-4.76.02-4.76c0-.88-.56-1.59-1.4-1.73-.09-.03-.2-.03-.3-.03h-57.51c-.98-.02-1.8.78-1.8,1.78v4.76s.02,4.64.02,4.64v6.96s.02,4.17.02,4.17v9.45s0,3.1,0,3.1l.02,9.15v3.81s.02,5.78.02,5.78v2.29l.02,7.63-5.63,4.07v-7.93l3.87-2.46v-5.9l-3.87,2.43v-15.37c0-.41-.2-.79-.49-1.08l-3.03-3.03c-.43-.43-.43-1.11,0-1.53l3.08-3.07c.25-.25.39-.56.43-.9v-13.21l3.8,2.44v-5.86l-3.8-2.42v-14.34c0-.43.34-.77.77-.77h14.25l2.72,4.33h5.91l-2.85-4.33h10.45c.41,0,.78-.19,1.08-.48l3.03-3.03c.43-.42,1.1-.42,1.53,0l3.07,3.09c.25.24.56.39.9.43h10.17l-2.6,4.33h5.78l2.6-4.33h14.23c.6,0,1.07.48,1.07,1.07v14.04l-3.99,2.53v5.73l3.99-2.43v13.43c.05.34.18.65.43.9l3.08,3.07c.37.37.4.91.13,1.33l-3.19,3.19.03.03h0c-.28.3-.48.69-.48,1.08ZM146.09,56.2v-.07l.04.04-.04.04Z"/>
  </g>
</svg>