<?xml version="1.0" encoding="UTF-8"?>
<svg id="Layer_1" data-name="Layer 1" xmlns="http://www.w3.org/2000/svg" viewBox="0 0 748.71 104.02">
  <defs>
    <style>
      .cls-1 {
        fill: #50beaf;
      }

      .cls-2 {
        fill: #1a1a1a;
      }
    </style>
  </defs>
  <g>
    <path class="cls-1" d="M69.76,84.9h-3.49l13.08,18.85c.11.16.3.26.5.26h7.76c.33,0,.5-.4.27-.64l-18.12-18.47Z"/>
    <path class="cls-1" d="M63.33,85.05c-.05-.09-.14-.15-.25-.15h-3.11c-.1,0-.17.1-.14.2l1.96,5.5h4.48l-2.94-5.54Z"/>
    <path class="cls-1" d="M68.19,94.2h-5.11l3.39,9.51c.07.18.24.3.43.3h6.08c.18,0,.3-.2.21-.36l-5.01-9.45Z"/>
    <path class="cls-1" d="M42.65,84.9l-18.12,18.47c-.23.24-.07.64.27.64h7.76c.2,0,.38-.1.5-.26l13.08-18.85h-3.49Z"/>
    <path class="cls-1" d="M39.19,103.65c-.09.16.03.36.22.36h6.08c.19,0,.36-.12.42-.3l3.54-9.51h-5.11l-5.16,9.45Z"/>
    <path class="cls-1" d="M52.69,84.9h-3.11c-.1,0-.2.06-.25.15l-3.03,5.55h4.48l2.04-5.5c.04-.1-.04-.2-.14-.2Z"/>
    <path class="cls-1" d="M55.25,84.9l-2.07,18.73c-.02.2.14.38.34.38h5.94c.2,0,.36-.18.34-.38l-1.92-18.74h-2.64Z"/>
    <path class="cls-1" d="M104.61,59.35l7.78-7.78-7.46-7.46-4.81,4.81,2.83,2.83,1.98-1.98,1.81,1.81-4.96,4.96-2.86-2.86V15.5c0-1.04-.84-1.88-1.88-1.88h-34.89l-3.01-3.01,4.96-4.96,1.81,1.81-1.98,1.98,2.83,2.83,4.81-4.81-7.46-7.46-7.78,7.78-7.78-7.78-7.46,7.46,4.81,4.81,2.83-2.83-1.98-1.98,1.81-1.81,4.96,4.96-3.01,3.01H15.64c-1.04,0-1.89.85-1.89,1.88v38.01l-3.14,3.14-4.96-4.96,1.81-1.81,1.98,1.98,2.83-2.83-4.81-4.81L0,51.69l7.78,7.78-7.78,7.78,7.46,7.46,4.81-4.81-2.83-2.83-1.98,1.98-1.81-1.81,4.96-4.96,3.14,3.14v10.57h-.01v6.12-.02s.01,21.37.01,21.37c0,.45.53.69.88.42l24.06-18.9c.46-.37.73-.93.73-1.52v-9.57l10.3-10.74,10.32,10.32,2.83-2.83-5.19-5.19,7.5-7.5,8.08,8.07v17.42c0,.59.27,1.15.72,1.52l23.84,18.86c.45.37,1.13.04,1.13-.54l-.02-20.48v-17.8l2.86-2.86,4.96,4.96-1.81,1.81-1.98-1.98-2.83,2.83,4.81,4.81,7.46-7.46-7.78-7.78ZM56.32,13.44l.19.19h-.37l.19-.19ZM13.44,59.47l.31-.31v.62l-.31-.31ZM65.18,52.34l-10.32,10.32-5.19-5.19-10.25,10.68v-7.12l-.02-.02v-9.34s.02-.01.02-.03v-12.3c0-.45.37-.81.81-.81h32.22c.44,0,.81.37.81.81v12.3h0v8.78l-8.08-8.07ZM87.15,60.06l-3.21,3.21c-.14.13-.33.4-.33,1.05v9.29l-3.66-2.33v6.16l3.67,2.35v7.07s-5.55-4.29-5.55-4.29c-.22-.2-.35-.48-.35-.78v-45.88c0-1.04-.85-1.88-1.88-1.88h-6.62.59s-6.11-.01-6.11-.01h-.59s-14.44.01-14.44.01h0s-6.11-.01-6.11-.01h0s-5.74.01-5.74.01c-1.04,0-1.88.84-1.88,1.88v6.36h-.01v6.1h.01v15.98h-.01v6.1h.01v11.91c0,.31-.15.62-.41.81l-5.5,3.89.02-7.16,3.65-2.31v-6.15l-3.65,2.31v-3.25s.01-6.79.01-6.79c-.09-.19-.22-.37-.37-.52l-3.2-3.21c-.45-.45-.45-1.17,0-1.62l3.25-3.26c.15-.13.25-.29.33-.47v-7.45s3.63,2.33,3.63,2.33v-6.27l-3.62-2.26v-5.35s.01-6.53.01-6.53c0-.44.37-.81.83-.8h10.7l2.9,4.59h6.26l-2.96-4.59h3.84c.43,0,.87,0,1.28-.31l3.66-3.01c.22-.22.51-.33.8-.33s.59.11.82.33l3.62,2.8c.27.18.59.42.95.46l3.86.06-2.98,4.59h6.29l2.99-4.68,10.83.09c.44,0,.81.36.81.8v11.84l-3.63,2.3v6.26l3.64-2.21v7.49c.08.15.17.28.29.4l3.27,3.25c.44.46.44,1.18,0,1.62ZM94.44,64.57v16.24l-4.28-2.71v6.23l4.28,2.75v8.17l-5.93-4.92-.03-7.45.03-5.91v-7.54l-.03-3.2v-5.5s.03-3.3.03-3.3v-7.83s.01-7.22.01-7.22v-6.08s0-.03,0-.03v-5.55s.02-5.03.02-5.03c0-.93-.59-1.68-1.48-1.83-.1-.03-.21-.03-.32-.03H25.97c-1.04-.02-1.9.83-1.9,1.88v5.03s.02,4.91.02,4.91v7.35s.02,4.41.02,4.41v9.98s.01,3.28.01,3.28l.02,9.67v4.03s.02,6.1.02,6.1v2.42l.02,8.06-5.94,4.31v-8.38l4.09-2.6v-6.23l-4.09,2.57v-16.25c0-.43-.21-.84-.52-1.14l-3.2-3.21c-.45-.45-.45-1.17,0-1.62l3.26-3.25c.26-.26.41-.59.46-.95v-13.96l4.02,2.58v-6.19l-4.02-2.56v-15.16c0-.45.36-.81.81-.81h15.06l2.88,4.58h6.24l-3.01-4.58h11.04c.43,0,.83-.2,1.14-.51l3.21-3.21c.45-.44,1.16-.44,1.62,0l3.25,3.27c.26.25.59.41.95.45h10.75l-2.75,4.58h6.1l2.75-4.58h15.04c.63,0,1.13.51,1.13,1.13v14.84l-4.22,2.68v6.05l4.22-2.57v14.19c.05.36.19.69.46.95l3.26,3.25c.39.39.42.96.14,1.41l-3.37,3.37.03.03h0c-.3.31-.51.72-.51,1.14ZM98.92,59.39v-.08l.04.04-.04.04Z"/>
  </g>
  <g>
    <g>
      <polygon class="cls-2" points="169.33 38.61 155.46 58.8 169.33 79 169.33 80.04 161.32 80.04 149.94 62.62 141.25 62.62 141.25 80.04 134.14 80.04 134.14 37.57 141.25 37.57 141.25 56.03 149.26 56.03 161.32 37.57 169.33 37.57 169.33 38.61"/>
      <path class="cls-2" d="M198.73,51.53l-12.68,31c-.81,2.02-1.53,3.67-2.15,4.94-.63,1.27-1.44,2.58-2.43,3.91-.99,1.34-2.04,2.28-3.15,2.82-1.11.55-2.47.81-4.06.79-1.6-.02-3.39-.46-5.37-1.3l.79-4.79c1.66.85,3.11,1.11,4.37.79,1.25-.32,2.28-.95,3.06-1.88.79-.93,1.49-2.27,2.09-4l1.4-3.58-13.16-28.69v-.73h7.1l4.31,10.19,4.79,12.86h.18l4.43-12.8,3.88-10.25h6.61v.73Z"/>
      <path class="cls-2" d="M211.74,55.04c.57-1.62,1.67-2.89,3.31-3.82,1.64-.93,3.41-1.4,5.31-1.4,2.55-.08,4.79.61,6.73,2.06l-1.64,5.7c-1.78-1.17-3.72-1.76-5.82-1.76s-3.87.65-5.31,1.94c-1.44,1.3-2.15,3.07-2.15,5.34v16.93h-6.55v-21.23c0-.81-.02-1.4-.06-1.76-.04-.36-.15-.74-.33-1.12-.18-.38-.5-.64-.94-.76-.45-.12-1.05-.16-1.82-.12l-.06-4.49c2.43-.56,4.56-.5,6.4.18,1.84.69,2.82,2.12,2.94,4.31Z"/>
      <path class="cls-2" d="M251.19,81.74v-3.09c-2.87,1.62-5.82,2.43-8.86,2.43-3.84-.04-7.01-1.45-9.49-4.22-2.49-2.77-3.73-6.5-3.73-11.19,0-5.05,1.54-8.88,4.61-11.47,3.07-2.59,7-3.84,11.77-3.76,3.92.04,7.95.95,12.07,2.73v28.69c0,4.81-1.33,8.44-3.97,10.89-2.65,2.45-6.02,3.69-10.1,3.73-4.17.08-8.27-1.01-12.32-3.28l.97-5.34c4.29,2.06,8.01,3.07,11.16,3.03,5.26-.08,7.89-3.13,7.89-9.16ZM251.07,73.06v-16.02c-2.06-.73-4.13-1.09-6.19-1.09-2.87,0-5.11.82-6.7,2.46-1.6,1.64-2.42,4.06-2.46,7.25,0,3.07.76,5.45,2.27,7.13,1.52,1.68,3.47,2.54,5.85,2.58,2.35.08,4.75-.69,7.22-2.31Z"/>
      <path class="cls-2" d="M293.06,51.53l-12.68,31c-.81,2.02-1.53,3.67-2.15,4.94-.63,1.27-1.44,2.58-2.43,3.91-.99,1.34-2.04,2.28-3.15,2.82-1.11.55-2.47.81-4.06.79-1.6-.02-3.39-.46-5.37-1.3l.79-4.79c1.66.85,3.11,1.11,4.37.79,1.25-.32,2.28-.95,3.06-1.88.79-.93,1.49-2.27,2.09-4l1.4-3.58-13.16-28.69v-.73h7.1l4.31,10.19,4.79,12.86h.18l4.43-12.8,3.88-10.25h6.61v.73Z"/>
      <path class="cls-2" d="M296.1,80.04v-1.34l8.49-13.29,6.37-9.22h-13.95v-5.4h23.48v.85l-9.04,14.01-5.95,8.68h14.92v5.7h-24.33Z"/>
    </g>
    <g>
      <path class="cls-2" d="M341.69,68.96h6.92c.08,1.5.66,2.76,1.73,3.79,1.07,1.03,2.33,1.75,3.76,2.15,1.44.41,2.98.61,4.64.61,2.71,0,5.02-.51,6.95-1.52,1.92-1.01,2.88-2.71,2.88-5.1,0-1.05-.23-1.97-.7-2.76-.47-.79-.99-1.39-1.58-1.82-.59-.42-1.45-.79-2.58-1.09-1.13-.3-2.05-.51-2.76-.61-.71-.1-1.73-.21-3.06-.33-10.31-.89-15.47-4.77-15.47-11.65,0-4.13,1.55-7.3,4.64-9.52,3.09-2.22,6.87-3.34,11.31-3.34s8.14,1.03,11.19,3.09c3.05,2.06,4.62,5.14,4.7,9.22h-6.67c-.08-1.42-.63-2.6-1.64-3.55-1.01-.95-2.15-1.6-3.43-1.94-1.27-.34-2.68-.52-4.22-.52-2.31,0-4.37.52-6.19,1.55-1.82,1.03-2.73,2.64-2.73,4.82,0,.93.2,1.74.61,2.43.4.69.85,1.21,1.33,1.58.49.36,1.24.7,2.28,1,1.03.3,1.87.52,2.52.64s1.64.26,2.97.43c2.02.24,3.72.48,5.1.73,1.37.24,2.84.66,4.4,1.24,1.56.59,2.8,1.3,3.73,2.15.93.85,1.71,1.97,2.34,3.37.63,1.4.94,3.04.94,4.94,0,2.23-.5,4.2-1.49,5.91-.99,1.72-2.31,3.06-3.94,4.03-1.64.97-3.41,1.7-5.31,2.18-1.9.49-3.9.73-6.01.73-2.87.08-5.57-.32-8.1-1.21-2.53-.89-4.66-2.35-6.4-4.37-1.74-2.02-2.63-4.45-2.67-7.28Z"/>
      <path class="cls-2" d="M381.43,42.75c0-1.21.39-2.16,1.18-2.85.79-.69,1.73-1.03,2.82-1.03s2.02.34,2.79,1.03c.77.69,1.15,1.64,1.15,2.85s-.38,2.16-1.15,2.85c-.77.69-1.68,1.05-2.73,1.09-1.09.04-2.04-.29-2.85-1-.81-.71-1.21-1.69-1.21-2.94ZM388.71,52.1v28.94h-6.61v-28.94h6.61Z"/>
      <path class="cls-2" d="M425,81.03h-6.67v-17.17c.04-2.22-.59-4-1.88-5.34s-2.95-2.02-4.97-2.06c-2.1,0-3.86.74-5.28,2.21-1.42,1.48-2.12,3.39-2.12,5.73v16.62h-6.67v-20.75c0-1.86-.16-3.05-.49-3.58-.32-.53-1.19-.75-2.61-.67v-4.31c1.5-.2,2.92-.34,4.28-.43,1.35-.08,2.51.29,3.46,1.12.95.83,1.43,2.11,1.43,3.85.77-1.74,2.08-3.02,3.94-3.85,1.86-.83,3.86-1.24,6.01-1.24,3.8,0,6.68,1.16,8.65,3.49,1.96,2.33,2.94,5.39,2.94,9.19v17.17Z"/>
      <path class="cls-2" d="M452.93,82.73v-3.09c-2.87,1.62-5.83,2.43-8.86,2.43-3.84-.04-7.01-1.45-9.49-4.22-2.49-2.77-3.73-6.5-3.73-11.19,0-5.05,1.54-8.88,4.61-11.47,3.07-2.59,7-3.84,11.77-3.76,3.92.04,7.95.95,12.07,2.73v28.69c0,4.81-1.33,8.44-3.97,10.89-2.65,2.45-6.02,3.69-10.1,3.73-4.17.08-8.27-1.01-12.31-3.28l.97-5.34c4.29,2.06,8.01,3.07,11.16,3.03,5.26-.08,7.89-3.13,7.89-9.16ZM452.8,74.06v-16.02c-2.06-.73-4.13-1.09-6.19-1.09-2.87,0-5.11.82-6.7,2.46-1.6,1.64-2.42,4.06-2.46,7.25,0,3.07.76,5.45,2.28,7.13,1.52,1.68,3.47,2.54,5.85,2.58,2.35.08,4.75-.69,7.22-2.31Z"/>
      <path class="cls-2" d="M466.81,36.63h6.55v33.91c0,2.47.43,4.12,1.3,4.94.87.83,2.54,1.04,5,.64l.24,5.1c-4.65.77-8,.37-10.04-1.18-2.04-1.56-3.06-4.7-3.06-9.43v-33.97Z"/>
      <path class="cls-2" d="M497.12,51.13c5.05,0,8.72,1.52,10.98,4.55,2.26,3.03,2.91,7.02,1.94,11.95h-21.6c0,2.59.9,4.65,2.7,6.19,1.8,1.54,4.07,2.31,6.82,2.31,3.88.2,7.42-.4,10.62-1.82l.85,4.91c-3.72,1.66-7.4,2.49-11.04,2.49-4.89.08-8.9-1.34-12.01-4.25-3.12-2.91-4.59-6.8-4.43-11.65.08-4.65,1.58-8.26,4.49-10.83,2.91-2.57,6.47-3.85,10.68-3.85ZM497.06,56.22c-4.77,0-7.6,2.24-8.49,6.73h16.14c.08-2.1-.62-3.75-2.09-4.95-1.48-1.19-3.33-1.79-5.55-1.79Z"/>
      <g>
        <path class="cls-2" d="M552.78,39.97h3.15l10.19,28.82h.12l4.25-15.23,4.49-14.32h7.46v1.03l-14.14,41.74h-3.64l-10.25-27.24h-.12l-10.25,27.24h-3.88l-14.07-41.74v-1.03h7.34l4.61,14.32,4.43,15.29h.12l10.19-28.88Z"/>
        <path class="cls-2" d="M586.79,43.42c0-1.21.39-2.16,1.18-2.85.79-.69,1.73-1.03,2.82-1.03s2.02.34,2.79,1.03c.77.69,1.15,1.64,1.15,2.85s-.39,2.16-1.15,2.85c-.77.69-1.68,1.05-2.73,1.09-1.09.04-2.04-.29-2.85-1-.81-.71-1.21-1.69-1.21-2.94ZM594.07,52.77v28.94h-6.61v-28.94h6.61Z"/>
        <path class="cls-2" d="M630.36,81.7h-6.67v-17.17c.04-2.22-.59-4-1.88-5.34-1.29-1.34-2.95-2.02-4.97-2.06-2.1,0-3.86.74-5.28,2.21-1.42,1.48-2.12,3.39-2.12,5.73v16.62h-6.67v-20.75c0-1.86-.16-3.05-.49-3.58-.32-.53-1.19-.75-2.61-.67v-4.31c1.5-.2,2.92-.34,4.28-.43,1.35-.08,2.51.29,3.46,1.12.95.83,1.43,2.11,1.43,3.85.77-1.74,2.08-3.02,3.94-3.85,1.86-.83,3.86-1.24,6.01-1.24,3.8,0,6.68,1.16,8.64,3.49,1.96,2.33,2.94,5.39,2.94,9.19v17.17Z"/>
        <path class="cls-2" d="M659.35,77.21v-.85c-1.78,3.96-5.02,5.95-9.71,5.95-4.17.08-7.45-1.37-9.86-4.34-2.41-2.97-3.61-6.62-3.61-10.95s1.34-8.01,4.03-10.8c2.69-2.79,5.96-4.19,9.8-4.19,2.87,0,5.58.75,8.13,2.24v-16.99h6.61v35.31c0,2.06.1,3.28.3,3.64.36.65,1.27.97,2.73.97l.12,4.55c-5.7.97-8.55-.55-8.55-4.55ZM658.25,68.3v-8.19c-2.3-1.62-4.71-2.39-7.22-2.31-2.39.04-4.37.87-5.95,2.49-1.58,1.62-2.37,3.86-2.37,6.73,0,2.67.68,4.9,2.03,6.7,1.36,1.8,3.33,2.7,5.91,2.7,2.23,0,4.04-.79,5.46-2.37,1.41-1.58,2.12-3.5,2.12-5.76Z"/>
        <path class="cls-2" d="M702.23,66.96c0,4.81-1.54,8.56-4.61,11.25-3.07,2.69-6.69,4.03-10.86,4.03s-7.78-1.34-10.83-4.03c-3.05-2.69-4.58-6.44-4.58-11.25s1.5-8.48,4.49-11.13c2.99-2.65,6.55-4.01,10.68-4.09,2.71-.04,5.23.48,7.55,1.55,2.33,1.07,4.27,2.8,5.83,5.19,1.56,2.39,2.33,5.22,2.33,8.49ZM677.9,66.96c0,2.99.89,5.33,2.67,7.01,1.78,1.68,3.88,2.5,6.31,2.46,2.39-.04,4.44-.89,6.16-2.55,1.72-1.66,2.58-3.96,2.58-6.92s-.91-5.33-2.73-7.01c-1.82-1.68-3.94-2.48-6.37-2.4-2.39.08-4.42.94-6.1,2.58s-2.52,3.91-2.52,6.83Z"/>
        <path class="cls-2" d="M718.56,82.01h-2.97l-11.53-28.82v-.73h7.1l3.7,10.07,2.73,8.01h.12l6.98-17.41h3.28l6.98,17.47h.18l2.79-8.07c.44-1.29,1.1-3.12,1.97-5.49.87-2.37,1.43-3.89,1.67-4.58h7.16v.73l-11.59,28.82h-2.97l-7.83-17.65-7.77,17.65Z"/>
      </g>
    </g>
  </g>
</svg>