<?xml version="1.0" encoding="UTF-8"?>
<svg id="Layer_1" data-name="Layer 1" xmlns="http://www.w3.org/2000/svg" viewBox="0 0 215.2 181.22">
  <defs>
    <style>
      .cls-1 {
        fill: #1a1a1a;
      }
    </style>
  </defs>
  <g>
    <polygon class="cls-1" points="20.18 118.46 12.22 130.04 20.18 141.63 20.18 142.22 15.58 142.22 9.06 132.23 4.07 132.23 4.07 142.22 0 142.22 0 117.87 4.07 117.87 4.07 128.45 8.67 128.45 15.58 117.87 20.18 117.87 20.18 118.46"/>
    <path class="cls-1" d="M37.03,125.87l-7.27,17.77c-.46,1.16-.88,2.1-1.23,2.83-.36.73-.82,1.48-1.39,2.24-.57.77-1.17,1.3-1.81,1.62-.64.31-1.41.46-2.33.45-.92-.01-1.94-.26-3.08-.75l.45-2.75c.95.49,1.79.64,2.5.45.72-.19,1.3-.55,1.76-1.08.45-.53.85-1.3,1.2-2.3l.8-2.05-7.55-16.45v-.42h4.07l2.47,5.84,2.75,7.37h.1l2.54-7.34,2.23-5.88h3.79v.42Z"/>
    <path class="cls-1" d="M44.49,127.89c.32-.93.96-1.66,1.9-2.19.94-.53,1.95-.8,3.04-.8,1.46-.05,2.75.35,3.86,1.18l-.94,3.27c-1.02-.67-2.13-1.01-3.34-1.01s-2.22.37-3.04,1.11c-.82.74-1.23,1.76-1.23,3.06v9.7h-3.76v-12.17c0-.46-.01-.8-.03-1.01-.02-.21-.09-.42-.19-.64-.1-.22-.28-.37-.54-.43-.26-.07-.6-.09-1.04-.07l-.03-2.57c1.39-.32,2.61-.29,3.67.1,1.06.39,1.62,1.22,1.69,2.47Z"/>
    <path class="cls-1" d="M67.11,143.19v-1.77c-1.65.93-3.34,1.39-5.08,1.39-2.2-.02-4.02-.83-5.44-2.42-1.43-1.59-2.14-3.73-2.14-6.42,0-2.9.88-5.09,2.64-6.57,1.76-1.48,4.01-2.2,6.75-2.16,2.25.02,4.56.55,6.92,1.57v16.45c0,2.76-.76,4.84-2.28,6.24-1.52,1.4-3.45,2.12-5.79,2.14-2.39.05-4.74-.58-7.06-1.88l.56-3.06c2.46,1.18,4.59,1.76,6.4,1.74,3.01-.05,4.52-1.8,4.52-5.25ZM67.04,138.22v-9.18c-1.18-.42-2.37-.63-3.55-.63-1.65,0-2.93.47-3.84,1.41-.92.94-1.39,2.33-1.41,4.16,0,1.76.43,3.13,1.3,4.09.87.96,1.99,1.46,3.36,1.48,1.34.05,2.72-.39,4.14-1.32Z"/>
    <path class="cls-1" d="M91.12,125.87l-7.27,17.77c-.46,1.16-.88,2.1-1.23,2.83-.36.73-.82,1.48-1.39,2.24-.57.77-1.17,1.3-1.81,1.62-.64.31-1.41.46-2.33.45-.92-.01-1.94-.26-3.08-.75l.45-2.75c.95.49,1.79.64,2.5.45.72-.19,1.3-.55,1.76-1.08.45-.53.85-1.3,1.2-2.3l.8-2.05-7.55-16.45v-.42h4.07l2.47,5.84,2.75,7.37h.1l2.54-7.34,2.23-5.88h3.79v.42Z"/>
    <path class="cls-1" d="M92.86,142.22v-.77l4.87-7.62,3.65-5.29h-8v-3.1h13.46v.49l-5.18,8.03-3.41,4.97h8.56v3.27h-13.95Z"/>
    <path class="cls-1" d="M118.43,135.3h3.97c.05.86.38,1.58.99,2.17.61.59,1.33,1,2.16,1.23.82.23,1.71.35,2.66.35,1.55,0,2.88-.29,3.98-.87,1.1-.58,1.65-1.55,1.65-2.92,0-.6-.13-1.13-.4-1.58-.27-.45-.57-.8-.9-1.04-.34-.24-.83-.45-1.48-.63-.65-.17-1.18-.29-1.58-.35-.41-.06-.99-.12-1.76-.19-5.91-.51-8.87-2.74-8.87-6.68,0-2.37.89-4.19,2.66-5.46,1.77-1.28,3.94-1.91,6.49-1.91s4.67.59,6.42,1.77c1.75,1.18,2.65,2.95,2.7,5.29h-3.83c-.05-.81-.36-1.49-.94-2.04-.58-.54-1.24-.92-1.97-1.11-.73-.2-1.54-.3-2.42-.3-1.32,0-2.5.3-3.55.89-1.04.59-1.56,1.51-1.56,2.77,0,.53.12,1,.35,1.39.23.39.49.7.76.9.28.21.71.4,1.3.57.59.17,1.07.3,1.44.37s.94.15,1.7.24c1.16.14,2.13.28,2.92.42.79.14,1.63.38,2.52.71.89.34,1.61.75,2.14,1.24.53.49.98,1.13,1.34,1.93s.54,1.75.54,2.83c0,1.28-.28,2.41-.85,3.39-.57.99-1.32,1.76-2.26,2.31-.94.56-1.95.97-3.04,1.25s-2.24.42-3.44.42c-1.65.05-3.19-.19-4.64-.7-1.45-.51-2.67-1.34-3.67-2.5-1-1.16-1.51-2.55-1.53-4.17Z"/>
    <path class="cls-1" d="M141.21,120.27c0-.7.23-1.24.68-1.63.45-.39.99-.59,1.62-.59s1.16.2,1.6.59c.44.39.66.94.66,1.63s-.22,1.24-.66,1.64c-.44.39-.96.6-1.56.63-.63.02-1.17-.17-1.64-.57-.46-.41-.7-.97-.7-1.69ZM145.38,125.63v16.59h-3.79v-16.59h3.79Z"/>
    <path class="cls-1" d="M166.19,142.22h-3.83v-9.84c.02-1.28-.34-2.3-1.08-3.06-.74-.77-1.69-1.16-2.85-1.18-1.21,0-2.21.42-3.03,1.27-.81.85-1.22,1.94-1.22,3.29v9.53h-3.83v-11.9c0-1.07-.09-1.75-.28-2.05-.19-.3-.68-.43-1.5-.38v-2.47c.86-.12,1.68-.2,2.45-.24.78-.05,1.44.17,1.98.64.55.48.82,1.21.82,2.21.44-1,1.19-1.73,2.26-2.21,1.07-.47,2.21-.71,3.44-.71,2.18,0,3.83.67,4.96,2,1.12,1.33,1.69,3.09,1.69,5.27v9.84Z"/>
    <path class="cls-1" d="M182.2,143.19v-1.77c-1.65.93-3.34,1.39-5.08,1.39-2.2-.02-4.02-.83-5.44-2.42s-2.14-3.73-2.14-6.42c0-2.9.88-5.09,2.64-6.57,1.76-1.48,4.01-2.2,6.75-2.16,2.25.02,4.56.55,6.92,1.57v16.45c0,2.76-.76,4.84-2.28,6.24-1.52,1.4-3.45,2.12-5.79,2.14-2.39.05-4.74-.58-7.06-1.88l.56-3.06c2.46,1.18,4.59,1.76,6.4,1.74,3.01-.05,4.52-1.8,4.52-5.25ZM182.13,138.22v-9.18c-1.18-.42-2.37-.63-3.55-.63-1.65,0-2.93.47-3.84,1.41-.92.94-1.39,2.33-1.41,4.16,0,1.76.43,3.13,1.3,4.09.87.96,1.99,1.46,3.36,1.48,1.35.05,2.72-.39,4.14-1.32Z"/>
    <path class="cls-1" d="M190.16,116.76h3.76v19.44c0,1.41.25,2.36.75,2.83.5.48,1.45.6,2.87.37l.14,2.92c-2.67.44-4.59.21-5.76-.68-1.17-.89-1.76-2.7-1.76-5.41v-19.48Z"/>
    <path class="cls-1" d="M207.54,125.07c2.9,0,5,.87,6.3,2.61,1.3,1.74,1.67,4.02,1.11,6.85h-12.38c0,1.48.52,2.67,1.55,3.55,1.03.88,2.34,1.32,3.91,1.32,2.23.12,4.25-.23,6.09-1.04l.49,2.82c-2.13.95-4.24,1.43-6.33,1.43-2.81.05-5.1-.77-6.89-2.43-1.79-1.67-2.63-3.9-2.54-6.68.05-2.67.9-4.74,2.57-6.21,1.67-1.47,3.71-2.21,6.12-2.21ZM207.51,127.99c-2.74,0-4.36,1.29-4.87,3.86h9.25c.05-1.21-.35-2.15-1.2-2.84-.85-.68-1.91-1.03-3.18-1.03Z"/>
    <path class="cls-1" d="M58.35,156.94h1.81l5.84,16.52h.07l2.44-8.73,2.57-8.21h4.28v.59l-8.1,23.93h-2.09l-5.88-15.62h-.07l-5.88,15.62h-2.23l-8.07-23.93v-.59h4.21l2.64,8.21,2.54,8.77h.07l5.84-16.56Z"/>
    <path class="cls-1" d="M77.85,158.92c0-.7.23-1.24.68-1.63.45-.39.99-.59,1.62-.59s1.16.2,1.6.59c.44.39.66.94.66,1.63s-.22,1.24-.66,1.64c-.44.39-.96.6-1.57.63-.63.02-1.17-.17-1.63-.57-.46-.41-.7-.97-.7-1.69ZM82.03,164.28v16.59h-3.79v-16.59h3.79Z"/>
    <path class="cls-1" d="M102.83,180.87h-3.83v-9.84c.02-1.28-.34-2.3-1.08-3.06-.74-.77-1.69-1.16-2.85-1.18-1.21,0-2.21.42-3.03,1.27-.81.85-1.22,1.94-1.22,3.29v9.53h-3.83v-11.9c0-1.07-.09-1.75-.28-2.05-.19-.3-.68-.43-1.5-.38v-2.47c.86-.12,1.68-.2,2.45-.24.78-.05,1.44.17,1.98.64.54.48.82,1.21.82,2.21.44-1,1.19-1.73,2.26-2.21,1.07-.47,2.21-.71,3.44-.71,2.18,0,3.83.67,4.96,2,1.12,1.33,1.69,3.09,1.69,5.27v9.84Z"/>
    <path class="cls-1" d="M119.45,178.3v-.49c-1.02,2.27-2.88,3.41-5.57,3.41-2.39.05-4.27-.78-5.65-2.49-1.38-1.7-2.07-3.8-2.07-6.28s.77-4.59,2.31-6.19c1.54-1.6,3.42-2.4,5.62-2.4,1.65,0,3.2.43,4.66,1.29v-9.74h3.79v20.24c0,1.18.06,1.88.17,2.09.21.37.73.56,1.57.56l.07,2.61c-3.27.56-4.9-.31-4.9-2.61ZM118.83,173.18v-4.7c-1.32-.93-2.7-1.37-4.14-1.32-1.37.02-2.5.5-3.41,1.43-.9.93-1.36,2.21-1.36,3.86,0,1.53.39,2.81,1.17,3.84.78,1.03,1.91,1.55,3.39,1.55,1.28,0,2.32-.45,3.13-1.36.81-.9,1.22-2.01,1.22-3.3Z"/>
    <path class="cls-1" d="M144.04,172.42c0,2.76-.88,4.91-2.64,6.45-1.76,1.54-3.84,2.31-6.23,2.31s-4.46-.77-6.21-2.31c-1.75-1.54-2.63-3.69-2.63-6.45s.86-4.86,2.57-6.38c1.72-1.52,3.76-2.3,6.12-2.35,1.55-.02,3,.27,4.33.89,1.33.61,2.45,1.61,3.34,2.97.89,1.37,1.34,2.99,1.34,4.87ZM130.09,172.42c0,1.72.51,3.06,1.53,4.02,1.02.96,2.23,1.43,3.62,1.41,1.37-.02,2.54-.51,3.53-1.46.99-.95,1.48-2.27,1.48-3.96s-.52-3.06-1.56-4.02c-1.04-.96-2.26-1.42-3.65-1.37-1.37.05-2.53.54-3.5,1.48s-1.44,2.24-1.44,3.91Z"/>
    <path class="cls-1" d="M153.4,181.05h-1.7l-6.61-16.52v-.42h4.07l2.12,5.77,1.56,4.59h.07l4-9.98h1.88l4,10.02h.1l1.6-4.63c.25-.74.63-1.79,1.13-3.15.5-1.36.82-2.23.96-2.63h4.1v.42l-6.64,16.52h-1.7l-4.49-10.12-4.45,10.12Z"/>
  </g>
  <g>
    <path class="cls-1" d="M120.67,81.81h-3.36l12.61,18.17c.11.16.29.25.48.25h7.47c.32,0,.48-.39.26-.62l-17.46-17.8Z"/>
    <path class="cls-1" d="M114.48,81.95c-.05-.09-.14-.14-.24-.14h-2.99c-.1,0-.17.1-.13.19l1.89,5.3h4.31l-2.83-5.34Z"/>
    <path class="cls-1" d="M119.16,90.77h-4.92l3.26,9.17c.07.17.23.29.41.29h5.86c.17,0,.29-.19.2-.35l-4.82-9.11Z"/>
    <path class="cls-1" d="M94.55,81.81l-17.46,17.8c-.23.23-.06.62.26.62h7.47c.19,0,.37-.09.48-.25l12.61-18.17h-3.36Z"/>
    <path class="cls-1" d="M91.21,99.88c-.09.15.03.35.21.35h5.86c.18,0,.35-.12.4-.29l3.41-9.17h-4.92l-4.97,9.11Z"/>
    <path class="cls-1" d="M104.22,81.81h-2.99c-.1,0-.19.05-.24.14l-2.92,5.35h4.31l1.97-5.3c.03-.09-.03-.19-.13-.19Z"/>
    <path class="cls-1" d="M106.69,81.81l-2,18.05c-.02.2.13.37.33.37h5.73c.2,0,.35-.17.33-.36l-1.85-18.05h-2.54Z"/>
    <path class="cls-1" d="M161.76,49.69l-7.19-7.19-4.63,4.63,2.72,2.72,1.91-1.91,1.74,1.74-4.78,4.78-2.76-2.76V14.94c0-1-.81-1.81-1.81-1.81h-33.62l-2.9-2.9,4.78-4.78,1.74,1.74-1.91,1.91,2.72,2.72,4.64-4.64-7.19-7.19-7.5,7.5-7.5-7.5-7.19,7.19,4.63,4.64,2.72-2.72-1.91-1.91,1.74-1.74,4.78,4.78-2.9,2.9h-33.58c-1,0-1.82.82-1.82,1.81v36.63l-3.02,3.02-4.78-4.78,1.74-1.74,1.91,1.91,2.72-2.72-4.63-4.63-7.19,7.19,7.5,7.5-7.5,7.5,7.19,7.19,4.63-4.63-2.72-2.72-1.91,1.91-1.74-1.74,4.78-4.78,3.02,3.02v10.19h0v5.9-.02s0,20.59,0,20.59c0,.43.51.66.85.4l23.18-18.22c.44-.36.7-.9.7-1.46v-9.22l9.93-10.35,9.95,9.95,2.72-2.72-5-5,7.23-7.23,7.78,7.78v16.78c0,.57.26,1.11.69,1.46l22.97,18.18c.43.36,1.09.04,1.09-.52l-.02-19.74v-17.15l2.76-2.76,4.78,4.78-1.74,1.74-1.91-1.91-2.72,2.72,4.63,4.64,7.19-7.19-7.5-7.5,7.5-7.5ZM107.72,12.95l.18.18h-.36l.18-.18ZM66.39,57.31l.3-.3v.6l-.3-.3ZM116.26,50.43l-9.95,9.95-5.01-5.01-9.87,10.29v-6.86l-.02-.02v-9s.02,0,.02-.03v-11.85c0-.43.36-.78.78-.78h31.05c.42,0,.78.36.78.78v11.85h0v8.46l-7.78-7.78ZM137.43,57.88l-3.09,3.09c-.13.13-.32.39-.32,1.01v8.95l-3.52-2.24v5.94l3.53,2.26v6.82s-5.34-4.13-5.34-4.13c-.21-.19-.34-.46-.34-.75v-44.21c0-1-.82-1.81-1.81-1.81h-6.38.57s-5.89,0-5.89,0h-.57s-13.91,0-13.91,0h0s-5.89,0-5.89,0h0s-5.54,0-5.54,0c-1,0-1.81.81-1.81,1.81v6.13h0v5.88h0v15.39h0v5.88h0v11.48c0,.3-.14.6-.39.78l-5.3,3.75.02-6.9,3.51-2.22v-5.93l-3.51,2.22v-3.13s0-6.55,0-6.55c-.09-.18-.21-.36-.36-.5l-3.08-3.09c-.43-.43-.43-1.13,0-1.56l3.13-3.14c.14-.13.24-.28.32-.45v-7.18s3.49,2.24,3.49,2.24v-6.05l-3.49-2.18v-5.15s0-6.3,0-6.3c0-.42.36-.78.8-.77h10.31l2.79,4.42h6.04l-2.85-4.42h3.7c.41,0,.84,0,1.23-.3l3.52-2.9c.21-.21.49-.32.77-.32s.57.11.79.32l3.49,2.7c.26.17.57.4.91.44l3.72.06-2.87,4.42h6.07l2.88-4.51,10.44.09c.42,0,.78.35.78.77v11.41l-3.49,2.21v6.04l3.5-2.13v7.22c.08.14.16.27.28.39l3.15,3.13c.42.44.42,1.14,0,1.56ZM144.45,62.22v15.65l-4.12-2.61v6.01l4.12,2.65v7.88l-5.72-4.74-.03-7.18.03-5.7v-7.27l-.03-3.08v-5.3s.03-3.18.03-3.18v-7.55s0-6.96,0-6.96v-5.86s0-.03,0-.03v-5.34s.02-4.84.02-4.84c0-.9-.57-1.62-1.42-1.76-.1-.03-.2-.03-.31-.03h-58.57c-1-.02-1.83.8-1.83,1.81v4.84s.02,4.73.02,4.73v7.09s.02,4.25.02,4.25v9.62s0,3.16,0,3.16l.02,9.32v3.88s.02,5.88.02,5.88v2.33l.02,7.77-5.73,4.15v-8.08l3.94-2.5v-6.01l-3.94,2.47v-15.65c0-.41-.2-.81-.5-1.1l-3.08-3.09c-.43-.43-.43-1.13,0-1.56l3.14-3.13c.25-.25.39-.57.44-.91v-13.45l3.87,2.48v-5.97l-3.87-2.46v-14.61c0-.43.35-.78.78-.78h14.51l2.77,4.41h6.02l-2.9-4.41h10.64c.41,0,.8-.19,1.1-.49l3.09-3.09c.43-.42,1.12-.42,1.56,0l3.13,3.15c.25.24.57.39.91.43h10.36l-2.65,4.41h5.88l2.65-4.41h14.49c.61,0,1.09.49,1.09,1.09v14.3l-4.06,2.58v5.83l4.06-2.47v13.67c.05.35.18.66.44.91l3.14,3.13c.37.37.4.93.14,1.35l-3.25,3.25.03.03h0c-.29.3-.49.7-.49,1.1ZM148.77,57.23v-.07l.04.04-.04.04Z"/>
  </g>
</svg>