<?xml version="1.0" encoding="UTF-8"?>
<svg id="Layer_1" data-name="Layer 1" xmlns="http://www.w3.org/2000/svg" viewBox="0 0 507.95 104.02">
  <defs>
    <style>
      .cls-1 {
        fill: #50beaf;
      }
    </style>
  </defs>
  <g>
    <path class="cls-1" d="M160.35,36.22v6.27h-19.01v11.38h17.96v6.34h-17.96v12.55h19.38v6.52h-26.57v-43.06h26.2Z"/>
    <path class="cls-1" d="M171.66,86.11h-6.03l-.18-12.05h.74c1.31,0,2.35-.46,3.11-1.38.76-.92,1.25-1.82,1.48-2.71.23-.88.48-2.43.77-4.64.04-.33.08-.57.12-.74l2.15-14.95h20.91v24.42h4l-.18,12.05h-5.78v-6.83h-21.1v6.83ZM188.26,74.05v-18.82h-9.04l-1.42,11.26c-.37,2.38-.73,4.09-1.08,5.14-.35,1.05-.91,1.86-1.69,2.43h13.23Z"/>
    <path class="cls-1" d="M225.37,61.38l-18.88,17.96h-1.84v-29.71h6.52v17.84l18.57-17.9h2.09v29.71h-6.46v-17.9Z"/>
    <path class="cls-1" d="M260.74,49.63h6.52v29.65h-6.52v-12.42h-14.33v12.42h-6.46v-29.65h6.46v11.38h14.33v-11.38Z"/>
    <path class="cls-1" d="M305.03,64.34c0,4.88-1.56,8.68-4.68,11.41s-6.79,4.09-11.01,4.09-7.88-1.36-10.98-4.09c-3.1-2.73-4.64-6.53-4.64-11.41s1.52-8.6,4.55-11.29,6.64-4.07,10.83-4.15c2.75-.04,5.3.48,7.66,1.57,2.36,1.09,4.33,2.84,5.9,5.26,1.58,2.42,2.37,5.29,2.37,8.61ZM280.37,64.34c0,3.03.9,5.4,2.71,7.1,1.8,1.7,3.94,2.53,6.4,2.49,2.42-.04,4.5-.9,6.24-2.58,1.74-1.68,2.61-4.02,2.61-7.01s-.92-5.4-2.77-7.1c-1.84-1.7-4-2.51-6.46-2.43-2.42.08-4.48.95-6.18,2.61-1.7,1.66-2.55,3.97-2.55,6.92Z"/>
    <path class="cls-1" d="M325.11,48.96c5.13,0,8.84,1.54,11.13,4.61,2.3,3.08,2.95,7.12,1.97,12.12h-21.9c0,2.62.91,4.72,2.74,6.27,1.82,1.56,4.13,2.34,6.92,2.34,3.94.21,7.52-.41,10.76-1.84l.86,4.98c-3.77,1.68-7.51,2.52-11.19,2.52-4.96.08-9.02-1.35-12.18-4.31-3.16-2.95-4.66-6.89-4.49-11.81.08-4.72,1.6-8.37,4.55-10.98,2.95-2.6,6.56-3.91,10.83-3.91ZM325.04,54.12c-4.84,0-7.71,2.28-8.61,6.83h16.36c.08-2.13-.62-3.8-2.12-5.01-1.5-1.21-3.37-1.81-5.63-1.81Z"/>
    <path class="cls-1" d="M403.22,57.75c0,6.56-2.05,11.91-6.15,16.05-4.1,4.14-9.39,6.21-15.87,6.21s-11.33-2.02-15.53-6.06c-4.2-4.04-6.3-9.44-6.3-16.21s2.13-12.17,6.4-16.21c4.26-4.04,9.45-6.06,15.56-6.06s11.29,2.02,15.53,6.06c4.25,4.04,6.37,9.44,6.37,16.21ZM370.84,46.34c-2.81,2.77-4.22,6.57-4.22,11.41s1.39,8.63,4.18,11.38c2.79,2.75,6.29,4.12,10.52,4.12s7.74-1.37,10.55-4.12c2.81-2.75,4.21-6.54,4.21-11.38s-1.4-8.54-4.21-11.35c-2.81-2.81-6.3-4.21-10.49-4.21s-7.74,1.38-10.55,4.15Z"/>
    <path class="cls-1" d="M416.37,61.44h3.08c6.73,0,10.09-3.96,10.09-11.87h6.4c.08,7.59-2.5,12.59-7.75,15.01l9.53,14.02v.68h-7.01l-8.24-12.55c-.78.21-1.83.31-3.14.31h-2.95v12.24h-6.64v-29.65h6.64v11.81Z"/>
    <path class="cls-1" d="M463.67,49.63h6.52v29.65h-6.52v-12.42h-14.33v12.42h-6.46v-29.65h6.46v11.38h14.33v-11.38Z"/>
    <path class="cls-1" d="M507.95,64.34c0,4.88-1.56,8.68-4.68,11.41-3.12,2.73-6.79,4.09-11.01,4.09s-7.88-1.36-10.98-4.09c-3.1-2.73-4.64-6.53-4.64-11.41s1.52-8.6,4.55-11.29c3.03-2.69,6.64-4.07,10.82-4.15,2.75-.04,5.3.48,7.66,1.57,2.36,1.09,4.33,2.84,5.91,5.26,1.58,2.42,2.37,5.29,2.37,8.61ZM483.29,64.34c0,3.03.9,5.4,2.71,7.1,1.8,1.7,3.94,2.53,6.39,2.49,2.42-.04,4.5-.9,6.24-2.58,1.74-1.68,2.61-4.02,2.61-7.01s-.92-5.4-2.77-7.1c-1.84-1.7-4-2.51-6.46-2.43-2.42.08-4.48.95-6.18,2.61-1.7,1.66-2.55,3.97-2.55,6.92Z"/>
  </g>
  <g>
    <path class="cls-1" d="M69.76,84.9h-3.49l13.08,18.85c.11.16.3.26.5.26h7.76c.33,0,.5-.4.27-.64l-18.12-18.47Z"/>
    <path class="cls-1" d="M63.33,85.05c-.05-.09-.14-.15-.25-.15h-3.11c-.1,0-.17.1-.14.2l1.96,5.5h4.48l-2.94-5.54Z"/>
    <path class="cls-1" d="M68.19,94.2h-5.11l3.39,9.51c.07.18.24.3.43.3h6.08c.18,0,.3-.2.21-.36l-5.01-9.45Z"/>
    <path class="cls-1" d="M42.65,84.9l-18.12,18.47c-.23.24-.07.64.27.64h7.76c.2,0,.38-.1.5-.26l13.08-18.85h-3.49Z"/>
    <path class="cls-1" d="M39.19,103.65c-.09.16.03.36.22.36h6.08c.19,0,.36-.12.42-.3l3.54-9.51h-5.11l-5.16,9.45Z"/>
    <path class="cls-1" d="M52.69,84.9h-3.11c-.1,0-.2.06-.25.15l-3.03,5.55h4.48l2.04-5.5c.04-.1-.04-.2-.14-.2Z"/>
    <path class="cls-1" d="M55.25,84.9l-2.07,18.73c-.02.2.14.38.34.38h5.94c.2,0,.36-.18.34-.38l-1.92-18.74h-2.64Z"/>
    <path class="cls-1" d="M104.61,59.35l7.78-7.78-7.46-7.46-4.81,4.81,2.83,2.83,1.98-1.98,1.81,1.81-4.96,4.96-2.86-2.86V15.5c0-1.04-.84-1.88-1.88-1.88h-34.89l-3.01-3.01,4.96-4.96,1.81,1.81-1.98,1.98,2.83,2.83,4.81-4.81-7.46-7.46-7.78,7.78-7.78-7.78-7.46,7.46,4.81,4.81,2.83-2.83-1.98-1.98,1.81-1.81,4.96,4.96-3.01,3.01H15.64c-1.04,0-1.89.85-1.89,1.88v38.01l-3.14,3.14-4.96-4.96,1.81-1.81,1.98,1.98,2.83-2.83-4.81-4.81L0,51.69l7.78,7.78-7.78,7.78,7.46,7.46,4.81-4.81-2.83-2.83-1.98,1.98-1.81-1.81,4.96-4.96,3.14,3.14v10.57h-.01v6.12-.02s.01,21.37.01,21.37c0,.45.53.69.88.42l24.06-18.9c.46-.37.73-.93.73-1.52v-9.57l10.3-10.74,10.32,10.32,2.83-2.83-5.19-5.19,7.5-7.5,8.08,8.07v17.42c0,.59.27,1.15.72,1.52l23.84,18.86c.45.37,1.13.04,1.13-.54l-.02-20.48v-17.8l2.86-2.86,4.96,4.96-1.81,1.81-1.98-1.98-2.83,2.83,4.81,4.81,7.46-7.46-7.78-7.78ZM56.32,13.44l.19.19h-.37l.19-.19ZM13.44,59.47l.31-.31v.62l-.31-.31ZM65.18,52.34l-10.32,10.32-5.19-5.19-10.25,10.68v-7.12l-.02-.02v-9.34s.02-.01.02-.03v-12.3c0-.45.37-.81.81-.81h32.22c.44,0,.81.37.81.81v12.3h0v8.78l-8.08-8.07ZM87.15,60.06l-3.21,3.21c-.14.13-.33.4-.33,1.05v9.29l-3.66-2.33v6.16l3.67,2.35v7.07s-5.55-4.29-5.55-4.29c-.22-.2-.35-.48-.35-.78v-45.88c0-1.04-.85-1.88-1.88-1.88h-6.62.59s-6.11-.01-6.11-.01h-.59s-14.44.01-14.44.01h0s-6.11-.01-6.11-.01h0s-5.74.01-5.74.01c-1.04,0-1.88.84-1.88,1.88v6.36h-.01v6.1h.01v15.98h-.01v6.1h.01v11.91c0,.31-.15.62-.41.81l-5.5,3.89.02-7.16,3.65-2.31v-6.15l-3.65,2.31v-3.25s.01-6.79.01-6.79c-.09-.19-.22-.37-.37-.52l-3.2-3.21c-.45-.45-.45-1.17,0-1.62l3.25-3.26c.15-.13.25-.29.33-.47v-7.45s3.63,2.33,3.63,2.33v-6.27l-3.62-2.26v-5.35s.01-6.53.01-6.53c0-.44.37-.81.83-.8h10.7l2.9,4.59h6.26l-2.96-4.59h3.84c.43,0,.87,0,1.28-.31l3.66-3.01c.22-.22.51-.33.8-.33s.59.11.82.33l3.62,2.8c.27.18.59.42.95.46l3.86.06-2.98,4.59h6.29l2.99-4.68,10.83.09c.44,0,.81.36.81.8v11.84l-3.63,2.3v6.26l3.64-2.21v7.49c.08.15.17.28.29.4l3.27,3.25c.44.46.44,1.18,0,1.62ZM94.44,64.57v16.24l-4.28-2.71v6.23l4.28,2.75v8.17l-5.93-4.92-.03-7.45.03-5.91v-7.54l-.03-3.2v-5.5s.03-3.3.03-3.3v-7.83s.01-7.22.01-7.22v-6.08s0-.03,0-.03v-5.55s.02-5.03.02-5.03c0-.93-.59-1.68-1.48-1.83-.1-.03-.21-.03-.32-.03H25.97c-1.04-.02-1.9.83-1.9,1.88v5.03s.02,4.91.02,4.91v7.35s.02,4.41.02,4.41v9.98s.01,3.28.01,3.28l.02,9.67v4.03s.02,6.1.02,6.1v2.42l.02,8.06-5.94,4.31v-8.38l4.09-2.6v-6.23l-4.09,2.57v-16.25c0-.43-.21-.84-.52-1.14l-3.2-3.21c-.45-.45-.45-1.17,0-1.62l3.26-3.25c.26-.26.41-.59.46-.95v-13.96l4.02,2.58v-6.19l-4.02-2.56v-15.16c0-.45.36-.81.81-.81h15.06l2.88,4.58h6.24l-3.01-4.58h11.04c.43,0,.83-.2,1.14-.51l3.21-3.21c.45-.44,1.16-.44,1.62,0l3.25,3.27c.26.25.59.41.95.45h10.75l-2.75,4.58h6.1l2.75-4.58h15.04c.63,0,1.13.51,1.13,1.13v14.84l-4.22,2.68v6.05l4.22-2.57v14.19c.05.36.19.69.46.95l3.26,3.25c.39.39.42.96.14,1.41l-3.37,3.37.03.03h0c-.3.31-.51.72-.51,1.14ZM98.92,59.39v-.08l.04.04-.04.04Z"/>
  </g>
</svg>