<?xml version="1.0" encoding="UTF-8"?>
<svg id="Layer_1" data-name="Layer 1" xmlns="http://www.w3.org/2000/svg" viewBox="0 0 383.25 102.9">
  <defs>
    <style>
      .cls-1 {
        fill: #50beaf;
      }
    </style>
  </defs>
  <g>
    <path class="cls-1" d="M69.01,83.99h-3.45l12.94,18.65c.11.16.3.26.49.26h7.67c.33,0,.5-.4.27-.63l-17.93-18.27Z"/>
    <path class="cls-1" d="M62.65,84.13c-.05-.09-.14-.15-.25-.15h-3.07c-.1,0-.17.1-.14.2l1.94,5.44h4.43l-2.91-5.49Z"/>
    <path class="cls-1" d="M67.46,93.19h-5.05l3.35,9.41c.07.18.24.3.42.3h6.02c.18,0,.3-.2.21-.36l-4.95-9.35Z"/>
    <path class="cls-1" d="M42.19,83.99l-17.93,18.27c-.23.24-.06.63.27.63h7.67c.2,0,.38-.1.49-.26l12.94-18.65h-3.45Z"/>
    <path class="cls-1" d="M38.76,102.54c-.09.16.03.36.22.36h6.02c.19,0,.36-.12.42-.3l3.5-9.41h-5.05l-5.1,9.35Z"/>
    <path class="cls-1" d="M52.12,83.99h-3.07c-.1,0-.2.06-.24.15l-2.99,5.49h4.43l2.02-5.44c.04-.1-.04-.2-.14-.2Z"/>
    <path class="cls-1" d="M54.66,83.99l-2.05,18.53c-.02.2.14.38.34.38h5.88c.2,0,.36-.17.34-.37l-1.9-18.53h-2.61Z"/>
    <path class="cls-1" d="M103.49,58.71l7.7-7.7-7.38-7.38-4.76,4.76,2.8,2.8,1.96-1.96,1.79,1.79-4.91,4.91-2.83-2.83V15.33c0-1.03-.83-1.86-1.86-1.86h-34.51l-2.98-2.98,4.91-4.91,1.79,1.79-1.96,1.96,2.8,2.8,4.76-4.76-7.38-7.38-7.7,7.7-7.7-7.7-7.38,7.38,4.76,4.76,2.8-2.8-1.96-1.96,1.79-1.79,4.91,4.91-2.98,2.98H15.47c-1.03,0-1.87.84-1.87,1.86v37.6l-3.1,3.1-4.91-4.91,1.79-1.79,1.96,1.96,2.8-2.8-4.76-4.76L0,51.13l7.7,7.7-7.7,7.7,7.38,7.38,4.76-4.76-2.8-2.8-1.96,1.96-1.79-1.79,4.91-4.91,3.1,3.1v10.46h0v6.06-.02s0,21.14,0,21.14c0,.44.52.68.87.42l23.8-18.7c.45-.37.72-.92.72-1.5v-9.46l10.19-10.62,10.21,10.21,2.8-2.8-5.13-5.13,7.42-7.42,7.99,7.99v17.23c0,.58.27,1.14.71,1.5l23.58,18.66c.44.37,1.12.04,1.12-.53l-.02-20.26v-17.61l2.83-2.83,4.91,4.91-1.79,1.79-1.96-1.96-2.8,2.8,4.76,4.76,7.38-7.38-7.7-7.7ZM55.72,13.29l.18.18h-.37l.18-.18ZM13.29,58.83l.31-.31v.62l-.31-.31ZM64.48,51.77l-10.21,10.21-5.14-5.14-10.14,10.56v-7.05l-.02-.02v-9.24s.02,0,.02-.03v-12.17c0-.44.37-.8.8-.8h31.88c.43,0,.8.37.8.8v12.17h0v8.69l-7.99-7.99ZM86.22,59.41l-3.17,3.17c-.14.13-.33.4-.33,1.04v9.19l-3.62-2.3v6.1l3.63,2.32v7s-5.49-4.24-5.49-4.24c-.22-.2-.35-.47-.35-.77v-45.39c0-1.03-.84-1.86-1.86-1.86h-6.55.58s-6.05,0-6.05,0h-.58s-14.28,0-14.28,0h0s-6.05,0-6.05,0h0s-5.68,0-5.68,0c-1.03,0-1.86.83-1.86,1.86v6.3h0v6.04h0v15.8h0v6.04h0v11.78c0,.31-.15.61-.41.8l-5.44,3.84.02-7.09,3.61-2.28v-6.09l-3.61,2.28v-3.21s0-6.72,0-6.72c-.09-.19-.22-.37-.37-.51l-3.16-3.17c-.44-.44-.44-1.16,0-1.6l3.21-3.22c.15-.13.25-.29.33-.46v-7.37s3.59,2.3,3.59,2.3v-6.21l-3.58-2.23v-5.29s0-6.46,0-6.46c0-.43.37-.8.82-.79h10.59l2.87,4.54h6.2l-2.93-4.54h3.8c.42,0,.86,0,1.27-.31l3.62-2.98c.22-.22.5-.33.79-.33s.58.11.81.33l3.58,2.77c.27.18.58.42.94.45l3.82.06-2.95,4.54h6.23l2.96-4.63,10.71.09c.43,0,.8.36.8.79v11.71l-3.59,2.27v6.2l3.6-2.18v7.41c.08.15.17.28.29.4l3.23,3.21c.43.45.43,1.17,0,1.6ZM93.42,63.87v16.06l-4.23-2.68v6.17l4.23,2.72v8.08l-5.87-4.86-.03-7.37.03-5.85v-7.46l-.03-3.16v-5.44s.03-3.26.03-3.26v-7.75s0-7.15,0-7.15v-6.02s0-.03,0-.03v-5.49s.02-4.97.02-4.97c0-.92-.58-1.66-1.46-1.81-.1-.03-.21-.03-.32-.03H25.69c-1.03-.02-1.88.82-1.88,1.86v4.97s.02,4.85.02,4.85v7.27s.02,4.36.02,4.36v9.87s0,3.24,0,3.24l.02,9.57v3.98s.02,6.04.02,6.04v2.39l.02,7.98-5.88,4.26v-8.29l4.04-2.57v-6.17l-4.04,2.54v-16.07c0-.43-.21-.83-.51-1.13l-3.16-3.17c-.44-.44-.44-1.16,0-1.6l3.22-3.21c.26-.26.41-.58.45-.94v-13.81l3.97,2.55v-6.13l-3.97-2.53v-14.99c0-.44.36-.8.8-.8h14.89l2.85,4.53h6.18l-2.98-4.53h10.92c.42,0,.82-.2,1.13-.5l3.17-3.17c.44-.43,1.15-.43,1.6,0l3.21,3.23c.26.25.58.41.94.44h10.63l-2.72,4.53h6.04l2.72-4.53h14.88c.62,0,1.12.5,1.12,1.12v14.68l-4.17,2.65v5.99l4.17-2.54v14.03c.05.36.19.68.45.94l3.22,3.21c.38.38.42.95.14,1.39l-3.34,3.34.03.03h0c-.3.31-.5.72-.5,1.13ZM97.86,58.75v-.08l.04.04-.04.04Z"/>
  </g>
  <g>
    <g>
      <polygon class="cls-1" points="153.6 23.6 144.97 36.17 153.6 48.74 153.6 49.38 148.62 49.38 141.54 38.54 136.13 38.54 136.13 49.38 131.7 49.38 131.7 22.96 136.13 22.96 136.13 34.44 141.11 34.44 148.62 22.96 153.6 22.96 153.6 23.6"/>
      <path class="cls-1" d="M171.89,31.64l-7.89,19.29c-.5,1.26-.95,2.28-1.34,3.08-.39.79-.89,1.6-1.51,2.43-.62.83-1.27,1.42-1.96,1.76-.69.34-1.54.5-2.53.49-.99-.01-2.11-.28-3.34-.81l.49-2.98c1.03.53,1.94.69,2.72.49.78-.2,1.42-.59,1.91-1.17.49-.58.92-1.41,1.3-2.49l.87-2.23-8.19-17.85v-.45h4.42l2.68,6.34,2.98,8h.11l2.76-7.96,2.42-6.38h4.11v.45Z"/>
      <path class="cls-1" d="M179.98,33.83c.35-1.01,1.04-1.8,2.06-2.38,1.02-.58,2.12-.87,3.3-.87,1.59-.05,2.98.38,4.19,1.28l-1.02,3.55c-1.11-.73-2.32-1.09-3.62-1.09s-2.41.4-3.3,1.21c-.89.81-1.34,1.91-1.34,3.32v10.53h-4.08v-13.21c0-.5-.01-.87-.04-1.1-.03-.23-.09-.46-.21-.7-.11-.24-.31-.4-.58-.47-.28-.08-.65-.1-1.13-.08l-.04-2.79c1.51-.35,2.84-.31,3.98.11,1.14.43,1.76,1.32,1.83,2.68Z"/>
      <path class="cls-1" d="M204.53,50.44v-1.93c-1.79,1.01-3.62,1.51-5.51,1.51-2.39-.03-4.36-.9-5.91-2.62-1.55-1.72-2.32-4.04-2.32-6.96,0-3.14.96-5.52,2.87-7.13,1.91-1.61,4.35-2.39,7.32-2.34,2.44.03,4.94.59,7.51,1.7v17.85c0,2.99-.82,5.25-2.47,6.78-1.65,1.52-3.74,2.3-6.28,2.32-2.59.05-5.15-.63-7.66-2.04l.6-3.32c2.67,1.28,4.98,1.91,6.94,1.89,3.27-.05,4.91-1.95,4.91-5.7ZM204.45,45.04v-9.96c-1.28-.45-2.57-.68-3.85-.68-1.79,0-3.18.51-4.17,1.53-.99,1.02-1.5,2.52-1.53,4.51,0,1.91.47,3.39,1.42,4.43.94,1.04,2.16,1.58,3.64,1.6,1.46.05,2.96-.43,4.49-1.43Z"/>
      <path class="cls-1" d="M230.58,31.64l-7.89,19.29c-.5,1.26-.95,2.28-1.34,3.08-.39.79-.89,1.6-1.51,2.43-.62.83-1.27,1.42-1.96,1.76-.69.34-1.54.5-2.53.49-.99-.01-2.11-.28-3.34-.81l.49-2.98c1.03.53,1.94.69,2.72.49.78-.2,1.42-.59,1.91-1.17.49-.58.92-1.41,1.3-2.49l.87-2.23-8.19-17.85v-.45h4.42l2.68,6.34,2.98,8h.11l2.76-7.96,2.42-6.38h4.11v.45Z"/>
      <path class="cls-1" d="M232.47,49.38v-.83l5.28-8.27,3.96-5.74h-8.68v-3.36h14.61v.53l-5.62,8.72-3.7,5.4h9.28v3.55h-15.13Z"/>
    </g>
    <g>
      <path class="cls-1" d="M130.03,81.75h4.3c.05.93.41,1.72,1.08,2.36.67.64,1.45,1.09,2.34,1.34.89.25,1.86.38,2.89.38,1.69,0,3.13-.31,4.32-.94,1.2-.63,1.79-1.69,1.79-3.17,0-.65-.14-1.23-.43-1.72-.29-.49-.62-.87-.98-1.13-.37-.26-.9-.49-1.6-.68-.71-.19-1.28-.31-1.72-.38-.44-.06-1.08-.13-1.91-.21-6.42-.55-9.63-2.97-9.63-7.25,0-2.57.96-4.54,2.89-5.93,1.93-1.38,4.27-2.08,7.04-2.08s5.06.64,6.96,1.93c1.9,1.28,2.87,3.2,2.93,5.74h-4.15c-.05-.88-.39-1.62-1.02-2.21-.63-.59-1.34-.99-2.13-1.21-.79-.21-1.67-.32-2.62-.32-1.43,0-2.72.32-3.85.96-1.13.64-1.7,1.64-1.7,3,0,.58.13,1.08.38,1.51.25.43.53.76.83.98.3.23.77.43,1.42.62.64.19,1.16.32,1.57.4.4.08,1.02.16,1.85.26,1.26.15,2.31.3,3.17.45.86.15,1.77.41,2.74.77.97.37,1.74.81,2.32,1.34.58.53,1.06,1.23,1.45,2.09.39.87.59,1.89.59,3.08,0,1.38-.31,2.61-.92,3.68-.62,1.07-1.43,1.91-2.45,2.51-1.02.6-2.12,1.06-3.3,1.36s-2.43.45-3.74.45c-1.79.05-3.47-.2-5.04-.76-1.57-.55-2.9-1.46-3.98-2.72-1.08-1.26-1.64-2.77-1.66-4.53Z"/>
      <path class="cls-1" d="M154.75,65.44c0-.75.24-1.35.74-1.77.49-.43,1.08-.64,1.76-.64s1.26.21,1.74.64c.48.43.72,1.02.72,1.77s-.24,1.35-.72,1.77c-.48.43-1.04.65-1.7.68-.68.03-1.27-.18-1.77-.62-.5-.44-.75-1.05-.75-1.83ZM159.28,71.25v18h-4.11v-18h4.11Z"/>
      <path class="cls-1" d="M181.86,89.26h-4.15v-10.68c.02-1.38-.37-2.49-1.17-3.32-.81-.83-1.84-1.26-3.09-1.28-1.31,0-2.4.46-3.28,1.38-.88.92-1.32,2.11-1.32,3.57v10.34h-4.15v-12.91c0-1.16-.1-1.9-.3-2.23-.2-.33-.74-.47-1.62-.42v-2.68c.93-.13,1.82-.21,2.66-.26.84-.05,1.56.18,2.15.7.59.52.89,1.32.89,2.4.48-1.08,1.3-1.88,2.45-2.4,1.16-.52,2.4-.77,3.74-.77,2.36,0,4.16.72,5.38,2.17,1.22,1.45,1.83,3.35,1.83,5.72v10.68Z"/>
      <path class="cls-1" d="M199.23,90.31v-1.93c-1.79,1.01-3.62,1.51-5.51,1.51-2.39-.03-4.36-.9-5.91-2.62s-2.32-4.04-2.32-6.96c0-3.14.96-5.52,2.87-7.13,1.91-1.61,4.35-2.39,7.32-2.34,2.44.03,4.94.59,7.51,1.7v17.85c0,2.99-.82,5.25-2.47,6.78-1.65,1.52-3.74,2.3-6.28,2.32-2.59.05-5.15-.63-7.66-2.04l.6-3.32c2.67,1.28,4.98,1.91,6.94,1.89,3.27-.05,4.91-1.95,4.91-5.7ZM199.15,84.92v-9.96c-1.28-.45-2.57-.68-3.85-.68-1.79,0-3.18.51-4.17,1.53-.99,1.02-1.5,2.52-1.53,4.51,0,1.91.47,3.39,1.42,4.43.94,1.04,2.16,1.58,3.64,1.6,1.46.05,2.96-.43,4.49-1.43Z"/>
      <path class="cls-1" d="M207.87,61.63h4.08v21.1c0,1.54.27,2.56.81,3.08.54.52,1.58.65,3.11.4l.15,3.17c-2.89.48-4.98.23-6.25-.74-1.27-.97-1.91-2.93-1.91-5.87v-21.14Z"/>
      <path class="cls-1" d="M226.72,70.65c3.14,0,5.42.94,6.83,2.83,1.41,1.89,1.81,4.37,1.21,7.44h-13.44c0,1.61.56,2.89,1.68,3.85,1.12.96,2.53,1.43,4.25,1.43,2.42.13,4.62-.25,6.6-1.13l.53,3.06c-2.31,1.03-4.6,1.55-6.87,1.55-3.04.05-5.54-.83-7.47-2.64-1.94-1.81-2.86-4.23-2.76-7.25.05-2.89.98-5.14,2.79-6.74,1.81-1.6,4.03-2.4,6.64-2.4ZM226.69,73.82c-2.97,0-4.73,1.4-5.28,4.19h10.04c.05-1.31-.38-2.33-1.3-3.08-.92-.74-2.07-1.11-3.45-1.11Z"/>
      <g>
        <path class="cls-1" d="M261.35,63.71h1.96l6.34,17.93h.08l2.64-9.47,2.79-8.91h4.64v.64l-8.79,25.97h-2.26l-6.38-16.95h-.08l-6.38,16.95h-2.42l-8.76-25.97v-.64h4.57l2.87,8.91,2.76,9.51h.08l6.34-17.97Z"/>
        <path class="cls-1" d="M282.51,65.86c0-.75.25-1.35.74-1.77.49-.43,1.08-.64,1.76-.64s1.26.21,1.74.64c.48.43.72,1.02.72,1.77s-.24,1.35-.72,1.77c-.48.43-1.04.65-1.7.68-.68.03-1.27-.18-1.77-.62-.5-.44-.75-1.05-.75-1.83ZM287.04,71.67v18h-4.11v-18h4.11Z"/>
        <path class="cls-1" d="M309.62,89.68h-4.15v-10.68c.02-1.38-.36-2.49-1.17-3.32-.81-.83-1.84-1.26-3.09-1.28-1.31,0-2.4.46-3.28,1.38-.88.92-1.32,2.11-1.32,3.57v10.34h-4.15v-12.91c0-1.16-.1-1.9-.3-2.23-.2-.33-.74-.47-1.62-.42v-2.68c.93-.13,1.82-.21,2.66-.26.84-.05,1.56.18,2.15.7.59.52.89,1.32.89,2.4.48-1.08,1.3-1.88,2.45-2.4,1.16-.52,2.4-.77,3.74-.77,2.36,0,4.16.72,5.38,2.17,1.22,1.45,1.83,3.35,1.83,5.72v10.68Z"/>
        <path class="cls-1" d="M327.65,86.88v-.53c-1.11,2.47-3.12,3.7-6.04,3.7-2.59.05-4.64-.85-6.13-2.7-1.5-1.85-2.25-4.12-2.25-6.81s.84-4.98,2.51-6.72c1.67-1.74,3.71-2.6,6.1-2.6,1.79,0,3.47.47,5.06,1.4v-10.57h4.11v21.97c0,1.28.06,2.04.19,2.26.23.4.79.6,1.7.6l.08,2.83c-3.55.6-5.32-.34-5.32-2.83ZM326.97,81.33v-5.1c-1.43-1.01-2.93-1.48-4.49-1.43-1.49.03-2.72.54-3.7,1.55-.98,1.01-1.47,2.4-1.47,4.19,0,1.66.42,3.05,1.26,4.17.84,1.12,2.07,1.68,3.68,1.68,1.38,0,2.52-.49,3.4-1.47.88-.98,1.32-2.18,1.32-3.59Z"/>
        <path class="cls-1" d="M354.33,80.5c0,2.99-.96,5.33-2.87,7-1.91,1.67-4.16,2.51-6.76,2.51s-4.84-.84-6.74-2.51c-1.9-1.67-2.85-4.01-2.85-7s.93-5.28,2.79-6.93c1.86-1.65,4.08-2.5,6.64-2.55,1.69-.02,3.25.3,4.7.96s2.65,1.74,3.62,3.23c.97,1.49,1.45,3.25,1.45,5.28ZM339.19,80.5c0,1.86.55,3.32,1.66,4.36,1.11,1.04,2.41,1.55,3.92,1.53,1.48-.02,2.76-.55,3.83-1.59,1.07-1.03,1.6-2.47,1.6-4.3s-.57-3.32-1.7-4.36c-1.13-1.04-2.45-1.54-3.96-1.49-1.49.05-2.75.58-3.79,1.6s-1.57,2.43-1.57,4.25Z"/>
        <path class="cls-1" d="M364.49,89.86h-1.85l-7.17-17.93v-.45h4.42l2.3,6.26,1.7,4.98h.08l4.34-10.83h2.04l4.34,10.87h.11l1.74-5.02c.28-.81.68-1.94,1.23-3.42.54-1.47.89-2.42,1.04-2.85h4.45v.45l-7.21,17.93h-1.85l-4.87-10.98-4.83,10.98Z"/>
      </g>
    </g>
  </g>
</svg>